<!-- icon666.com - MILLIONS vector ICONS FREE --><svg id="Layer_1" viewBox="0 0 64 64" xmlns="http://www.w3.org/2000/svg" xmlns:xlink="http://www.w3.org/1999/xlink"><linearGradient id="SVGID_1_" gradientUnits="userSpaceOnUse" x1="2" x2="62" y1="32" y2="32"><stop offset=".2043011" stop-color="#f90"></stop><stop offset=".4354839" stop-color="#ffa200"></stop><stop offset=".6935484" stop-color="#fc0"></stop></linearGradient><path d="m52 24h-20c-.5522461 0-1 .4477539-1 1v6c0 .5522461.4477539 1 1 1h20c.5527344 0 1-.4477539 1-1v-6c0-.5522461-.4472656-1-1-1zm-1 6h-18v-4h18zm1-17h-20c-.5522461 0-1 .4477539-1 1v6c0 .5522461.4477539 1 1 1h20c.5527344 0 1-.4477539 1-1v-6c0-.5522461-.4472656-1-1-1zm-1 6h-18v-4h18zm1 27h-20c-.5522461 0-1 .4472656-1 1v6c0 .5527344.4477539 1 1 1h20c.5527344 0 1-.4472656 1-1v-6c0-.5527344-.4472656-1-1-1zm-1 6h-18v-4h18zm1-17h-20c-.5522461 0-1 .4472656-1 1v6c0 .5527344.4477539 1 1 1h20c.5527344 0 1-.4472656 1-1v-6c0-.5527344-.4472656-1-1-1zm-1 6h-18v-4h18zm-35-24h-4c-.5522461 0-1 .4477539-1 1v4c0 .5522461.4477539 1 1 1h4c.5522461 0 1-.4477539 1-1v-4c0-.5522461-.4477539-1-1-1zm-1 4h-2v-2h2zm1 12h-4c-.5522461 0-1 .4472656-1 1v4c0 .5527344.4477539 1 1 1h4c.5522461 0 1-.4472656 1-1v-4c0-.5527344-.4477539-1-1-1zm-1 4h-2v-2h2zm1-12h-4c-.5522461 0-1 .4477539-1 1v4c0 .5522461.4477539 1 1 1h4c.5522461 0 1-.4477539 1-1v-4c0-.5522461-.4477539-1-1-1zm-1 4h-2v-2h2zm1 20h-4c-.5522461 0-1 .4472656-1 1v4c0 .5527344.4477539 1 1 1h4c.5522461 0 1-.4472656 1-1v-4c0-.5527344-.4477539-1-1-1zm-1 4h-2v-2h2zm1-12h-4c-.5522461 0-1 .4472656-1 1v4c0 .5527344.4477539 1 1 1h4c.5522461 0 1-.4472656 1-1v-4c0-.5527344-.4477539-1-1-1zm-1 4h-2v-2h2zm9-28h-4c-.5522461 0-1 .4477539-1 1v4c0 .5522461.4477539 1 1 1h4c.5522461 0 1-.4477539 1-1v-4c0-.5522461-.4477539-1-1-1zm-1 4h-2v-2h2zm1 12h-4c-.5522461 0-1 .4472656-1 1v4c0 .5527344.4477539 1 1 1h4c.5522461 0 1-.4472656 1-1v-4c0-.5527344-.4477539-1-1-1zm-1 4h-2v-2h2zm1-12h-4c-.5522461 0-1 .4477539-1 1v4c0 .5522461.4477539 1 1 1h4c.5522461 0 1-.4477539 1-1v-4c0-.5522461-.4477539-1-1-1zm-1 4h-2v-2h2zm1 20h-4c-.5522461 0-1 .4472656-1 1v4c0 .5527344.4477539 1 1 1h4c.5522461 0 1-.4472656 1-1v-4c0-.5527344-.4477539-1-1-1zm-1 4h-2v-2h2zm1-12h-4c-.5522461 0-1 .4472656-1 1v4c0 .5527344.4477539 1 1 1h4c.5522461 0 1-.4472656 1-1v-4c0-.5527344-.4477539-1-1-1zm-1 4h-2v-2h2zm38 13h-4v-49c0-.4975586-.3662109-.9194336-.8583984-.9897461l-28-4c-.2890625-.0410156-.578125.0449219-.796875.234375-.21875.1899414-.3447266.465332-.3447266.7553711v3.2191162l-19.2426758 4.810669c-.4448242.1113281-.7573242.5112304-.7573242.9702148v44h-4c-.5522461 0-1 .4472656-1 1s.4477539 1 1 1h5 20 28 5c.5527344 0 1-.4472656 1-1s-.4472656-1-1-1zm-52-43.2192383 18-4.5v47.7192383h-18zm20 43.2192383v-49-2.847168l26 3.7143555v48.1328125z" fill="url(#SVGID_1_)"></path></svg>