<!-- icon666.com - MILLIONS vector ICONS FREE --><svg id="Layer_1" viewBox="0 0 64 64" xmlns="http://www.w3.org/2000/svg" xmlns:xlink="http://www.w3.org/1999/xlink"><linearGradient id="SVGID_1_" gradientUnits="userSpaceOnUse" x1="2" x2="62" y1="32" y2="32"><stop offset=".2043011" stop-color="#f90"></stop><stop offset=".4354839" stop-color="#ffa200"></stop><stop offset=".6935484" stop-color="#fc0"></stop></linearGradient><path d="m37 40h-4c-.5522461 0-1 .4472656-1 1v12c0 .5527344.4477539 1 1 1h4c.5527344 0 1-.4472656 1-1v-12c0-.5527344-.4472656-1-1-1zm-1 12h-2v-10h2zm-7-12h-4c-.5522461 0-1 .4472656-1 1v12c0 .5527344.4477539 1 1 1h4c.5522461 0 1-.4472656 1-1v-12c0-.5527344-.4477539-1-1-1zm-1 12h-2v-10h2zm-7-12h-4c-.5522461 0-1 .4472656-1 1v12c0 .5527344.4477539 1 1 1h4c.5522461 0 1-.4472656 1-1v-12c0-.5527344-.4477539-1-1-1zm-1 12h-2v-10h2zm-7-12h-4c-.5522461 0-1 .4472656-1 1v12c0 .5527344.4477539 1 1 1h4c.5522461 0 1-.4472656 1-1v-12c0-.5527344-.4477539-1-1-1zm-1 12h-2v-10h2zm49 6h-1v-23c0-.5527344-.4472656-1-1-1h-1v-3c0-.5522461-.4472656-1-1-1h-8c-.5527344 0-1 .4477539-1 1v3h-3v-3c0-.5522461-.4472656-1-1-1h-8c-.5527344 0-1 .4477539-1 1v3h-4v-3c0-.5522461-.4477539-1-1-1h-8c-.5522461 0-1 .4477539-1 1v3h-4v-25c0-.5522461-.4477539-1-1-1h-1v-3c0-.5522461-.4477539-1-1-1h-4c-.5522461 0-1 .4477539-1 1v3h-1c-.5522461 0-1 .4477539-1 1v25h-2c-.5522461 0-1 .4472656-1 1v23h-1c-.5522461 0-1 .4472656-1 1s.4477539 1 1 1h2 36 14 4 2c.5527344 0 1-.4472656 1-1s-.4472656-1-1-1zm-11-26h6v2h-6zm-13 0h6v2h-6zm-14 0h6v2h-6zm-8-12h-6v-4h6zm-6 2h6v4h-6zm2-16h2v2h-2zm-1 4h4 1v4h-6v-4zm-1 18h6v6h-6zm33 30v-8h12v8zm14 0v-9c0-.5527344-.4472656-1-1-1h-14c-.5527344 0-1 .4472656-1 1v9h-34v-22h2 8 6 8 6 8 5 8 1v22zm-1-20h-4c-.5527344 0-1 .4472656-1 1v6c0 .5527344.4472656 1 1 1h4c.5527344 0 1-.4472656 1-1v-6c0-.5527344-.4472656-1-1-1zm-1 6h-2v-4h2zm-7-6h-6c-.5527344 0-1 .4472656-1 1v6c0 .5527344.4472656 1 1 1h6c.5527344 0 1-.4472656 1-1v-6c0-.5527344-.4472656-1-1-1zm-1 6h-4v-4h4z" fill="url(#SVGID_1_)"></path></svg>